<svg viewBox="359.22997499999974 354.58064516129025 1602.71835 1024.959677419355" xmlns="http://www.w3.org/2000/svg" xmlns:xlink="http://www.w3.org/1999/xlink" overflow="visible" width="1602.71835px" height="1024.959677419355px"><defs><path d="M179.983583,9.27769636 L181.956861,20.13906 L282.571887,0.487769091 L248.831879,171 C248.831879,171 34.2644111,182.52079 24,169.014057 C-25.3329722,80.2433941 19.9056004,-2.27021273 19.9056004,9.27769636 L179.983583,9.27769636 Z" id="masterscenestudy-path-3"/><path d="M275.684414,0.876652922 C298.838059,1.54914435 329.906472,9.13626937 355.7471,15.2297529 L355.731944,15.2730262 C397.943463,24.6870841 452.971125,41.5664426 466.9347,60.6071529 C489.4187,91.2671529 484.8307,126.127153 444.6317,165.644153 C415.2977,194.481153 386.9717,210.585153 372.4107,216.074153 C363.858947,207.086013 354.27259,195.452866 345.166172,184.184251 L345.5431,187.063753 C345.8052,205.151453 195.8084,217.517053 146.0664,197.369053 L149.907924,169.277823 C138.376043,183.58138 125.055547,200.37944 113.5941,212.425753 C99.0331,206.935753 70.7081,190.832753 41.3741,161.994753 C1.1741,122.477753 -11.4139,87.6187529 11.0701,56.9587529 C23.1971,40.4207529 69.0261,26.2177529 108.6751,16.6397529 C108.048715,16.8278037 108.709162,16.7365391 110.005927,16.5033439 C127.558487,12.2104677 191.200137,-1.57717031 275.684414,0.876652922 Z M162.310363,78.5613735 L87.8171,104.583753 C87.8171,104.583753 122.608609,134.324697 151.917069,154.584908 L162.310363,78.5613735 Z M332.466363,87.1363735 L341.108096,153.169863 C367.388419,133.830342 393.927617,109.395078 395.144211,108.27232 L395.1877,108.232153 L332.466363,87.1363735 Z" id="masterscenestudy-path-5"/><polygon id="masterscenestudy-path-1" points="370.382075 216.481709 253.882075 253.241286 253.882075 94.5047056 370.382075 68.1312994"/></defs><g id="Master/Scene/Study" stroke="none" stroke-width="1" fill="none" fill-rule="evenodd"><g id="Desk" transform="translate(365.354157, 576.662185)"><polygon id="Fill-1" fill="#f8f7ee" points="401.245783 582.747738 3.06954462e-12 797.176717 934.394844 797.176717 1164.39112 582.747738"/><path d="M143.986417,755.183991 C142.614794,761.927891 146.971454,768.505858 153.715266,769.877275 C154.552747,770.047603 155.38803,770.13002 156.211223,770.13002 C162.013143,770.13002 167.209483,766.056428 168.410751,760.150982 L262.34602,298.257036 C262.461421,297.695502 262.521869,297.136166 262.558138,296.580127 L237.762322,294.081247 L143.986417,755.183991 Z" id="Fill-2" fill="#54a196"/><path d="M345.968182,268.036849 L436.044663,759.520658 C437.147017,765.530498 442.387318,769.737056 448.289252,769.737056 C449.033314,769.737056 449.790564,769.668925 450.548913,769.530465 C457.318002,768.289816 461.801054,761.797562 460.561318,755.028388 L370.922262,265.936866 L346.000054,263.425898 C345.7132,264.906106 345.680229,266.462137 345.968182,268.036849" id="Fill-4" fill="#54a196"/><path d="M554.396133,612.796938 C553.260808,619.584793 557.843874,626.006718 564.630549,627.142972 C565.32735,627.258356 566.018657,627.315498 566.70227,627.315498 C572.681138,627.315498 577.958808,623.000149 578.978733,616.908991 L635.598832,278.531596 C635.788968,277.395342 635.805454,276.272275 635.692251,275.178877 L610.083133,279.99532 L554.396133,612.796938 Z" id="Fill-6" fill="#54a196"/><path d="M825.813657,623.373773 L725.443412,223.238651 C725.307129,222.695799 725.125784,222.177122 724.924657,221.671632 L700.906683,226.190275 C700.900379,227.21664 701.005888,228.25839 701.268563,229.302337 L801.638808,629.437458 C803.05769,635.093455 808.136431,638.868149 813.716341,638.868149 C814.71978,638.868149 815.740803,638.746172 816.75853,638.491229 C823.4331,636.816518 827.48752,630.048442 825.813657,623.373773" id="Fill-8" fill="#54a196"/><polygon id="Fill-10" fill="#54a196" points="142.901318 323.557704 142.901318 291.196436 612.89529 253.154995 805.70279 220.793727 805.70279 253.154995 431.442143 323.557704"/><polygon id="Fill-12" fill="#40664f" points="142.901318 291.196216 612.89529 220.794606 805.70279 220.794606 431.442143 291.196216"/><path d="M478.200517,256.59178 L456.253456,256.59178 L471.039065,211.831714 L407.653173,211.831714 L390.247414,262.030196 L388.996687,265.097203 C388.653782,265.936757 388.506508,266.842243 388.563659,267.746632 C388.765885,270.907045 391.389333,273.367464 394.555716,273.367464 L478.200517,273.367464 C482.83414,273.367464 486.589617,269.61255 486.589617,264.979622 C486.589617,260.346693 482.83414,256.59178 478.200517,256.59178" id="Fill-14" fill="#b8b5ab"/><path d="M256.96383,17.5742145 L620.620778,0.0183171091 C629.462689,-0.406954066 636.874726,6.62705315 636.908797,15.4797265 L637.558446,186.177203 C637.588014,194.267245 631.404722,201.026529 623.343142,201.716633 L256.96383,233.071317 L256.96383,17.5742145 Z" id="Fill-16" fill="#010101"/><path d="M242.405617,17.5742145 L256.96372,17.5742145 L256.96372,233.071317 L242.405617,233.071317 C232.445966,233.071317 224.374494,224.998857 224.374494,215.041797 L224.374494,35.6026354 C224.374494,25.6455757 232.445966,17.5742145 242.405617,17.5742145" id="Fill-20" fill="#b8b5ab"/></g><g id="UI" transform="translate(714.558567, 362.469983)"><g id="UI-Simple"><polygon id="Fill-1" fill="#e0d5c2" points="0 71.9192897 0 403.165975 361.046689 276.238463 361.046689 11.7088034"/><polygon id="Fill-2" fill="#c8b4a1" points="144.147758 187.345029 39.0284892 206.203114 39.0284892 121.342284 144.147758 104.242426"/><polygon id="Fill-3" fill="#c8b4a1" points="144.147978 0 39.028709 1.90877527 39.028709 101.960687 144.147978 84.149847"/><polygon id="Fill-4" fill="#c8b4a1" points="144.147758 285.824647 39.0284892 308.349734 39.0284892 228.250402 144.147758 206.389046"/><polygon id="Fill-5" fill="#c8b4a1" points="39.0289288 334.016882 39.0289288 427.783132 144.951608 388.495548 144.148198 312.203877"/><polygon id="Fill-6" fill="#87c4e1" points="378.317594 225.280427 193.71675 283.687632 193.71675 92.4507667 378.317594 53.8269133"/><polygon id="Fill-6-Copy" fill="#ffffff" points="237.396226 133.884674 202.226415 145.053734 202.226415 108.483998 237.396226 101.098057"/><polygon id="Fill-6-Copy-2" fill="#ffffff" points="237.396226 175.368827 202.226415 186.811627 202.226415 149.345613 237.396226 138.460383"/><polygon id="Fill-6-Copy-3" fill="#ffffff" points="237.396226 217.126721 202.226415 228.56952 202.226415 191.103506 237.396226 180.218276"/><polygon id="Fill-6-Copy-4" fill="#ffffff" points="237.396226 258.884614 202.226415 270.327414 202.226415 232.861399 237.396226 221.976169"/><path d="M193.700402,101.447329 C193.700402,101.447329 191.313949,89.4049824 197.295416,87.878398 L372.772853,50.2313389 C375.299584,49.6884863 379.503239,48.5415922 378.317594,60.5690039 C378.856132,63.0920598 193.700402,101.447329 193.700402,101.447329 Z" id="Fill-7" fill="#3675a3"/></g><path d="M206.622642,93.4062365 C206.622642,95.2268708 205.146145,96.7024894 203.325472,96.7024894 C201.503952,96.7024894 200.028302,95.2268708 200.028302,93.4062365 C200.028302,91.5856021 201.503952,90.1091379 203.325472,90.1091379 C205.146145,90.1091379 206.622642,91.5856021 206.622642,93.4062365" id="Fill-24" fill="#ebf3ec"/><path d="M216.514151,91.2084526 C216.514151,93.0290869 215.038311,94.5047056 213.217404,94.5047056 C211.395651,94.5047056 209.919811,93.0290869 209.919811,91.2084526 C209.919811,89.3878183 211.395651,87.911354 213.217404,87.911354 C215.038311,87.911354 216.514151,89.3878183 216.514151,91.2084526" id="Fill-26" fill="#ebf3ec"/><path d="M225.306604,89.0106688 C225.306604,90.8313031 223.830953,92.3069217 222.01028,92.3069217 C220.18876,92.3069217 218.712264,90.8313031 218.712264,89.0106688 C218.712264,87.1900344 220.18876,85.7135702 222.01028,85.7135702 C223.830953,85.7135702 225.306604,87.1900344 225.306604,89.0106688" id="Fill-28" fill="#ebf3ec"/><mask id="masterscenestudy-mask-2" fill="#ffffff"><use xlink:href="#masterscenestudy-path-1" fill="#ffffff"/></mask><use id="Fill-6-Copy-5" fill="#ffffff" xlink:href="#masterscenestudy-path-1"/><g mask="url(#masterscenestudy-mask-2)"><g transform="translate(222.009434, 40.659001) scale(1.0990571428571427 1.0988899082568806)" id="Patterns"><g id="Patterns/Pattern 4" stroke="none" stroke-width="1" fill="none" fill-rule="evenodd"><path d="M44.0182254,93.5340618 C52.0762519,97.8410164 62.8281863,99.5580091 73.7432963,98.6961198 C84.9214172,86.0149568 98.2590604,74.9374286 113.525562,66.114744 C111.795813,50.5778981 112.596907,34.8919 115.921886,19.4921175 C119.566814,2.60622659 125.826132,-9.94555973 137.125727,-19.5201488 C141.682325,-23.3806561 146.282471,-25.6343501 151.410836,-25.8053688 C157.514804,-26.0092903 163.523098,-22.8919386 166.608532,-18.3025013 C169.049667,-14.671429 169.792206,-10.7934007 169.783037,-4.96317236 C169.750763,14.3555838 163.536422,33.5124984 152.079347,50.7359233 C169.215323,47.037986 187.016949,47.1020175 202.183477,51.3901057 C208.479788,39.2548243 216.994427,30.813456 229.101431,26.7877312 C243.703137,21.932588 262.357131,24.6509903 277.489768,32.7320135 C290.300029,39.5732087 299.218371,49.1243735 301.443832,59.4854 C304.070392,71.712639 297.233538,84.7957391 284.324539,94.4728077 C275.394203,101.166782 263.970886,106.32409 249.832614,110.488019 C253.172841,134.733065 249.125812,159.013945 237.759392,180.926682 C225.520642,204.524775 204.539835,221.735254 178.141554,225.962184 C153.639383,229.885425 126.269596,221.90624 105.733064,206.59389 C94.6043998,209.573522 82.9748652,210.950551 71.5300011,210.432991 C59.6847044,209.897381 48.2014373,207.31355 37.5830246,203.103165 C37.7137448,209.512773 38.6258562,214.810599 40.5947001,219.841804 C45.5275666,232.451976 58.634875,242.133846 75.7961417,245.229536 C76.8327059,245.416519 77.5208593,246.405268 77.3331755,247.437966 C77.1454917,248.470665 76.1530427,249.156252 75.1164785,248.969269 C56.7157903,245.650002 42.48382,235.137387 37.0404096,221.222083 C34.7134425,215.275726 33.7534971,209.080513 33.7509399,201.496814 C11.9881624,191.872732 -5.7205525,175.351613 -14.7688091,155.79636 C-23.4779655,136.975941 -23.3599294,118.176299 -12.4984613,103.540211 C-8.30374525,97.8880955 -2.707945,94.2154777 3.86147462,93.9654432 C11.1943751,93.6857725 17.0062161,97.2459731 23.47172,104.131127 C32.7503458,114.0124 41.5660698,124.123375 49.8991656,134.440352 C55.4065684,123.168154 62.2536876,112.490026 70.3416952,102.68498 C60.0251578,102.977926 50.0303579,101.060445 42.2147943,96.8830845 C33.1835805,92.0560845 27.4210711,84.8272679 24.3869137,75.4928301 C23.6714736,73.2918133 23.1126956,71.0115863 22.6958238,68.6269781 C15.4956378,70.2072486 8.0461095,70.6348461 0.515901309,69.7658747 C-0.530520844,69.6451196 -1.28055586,68.7020989 -1.15934878,67.6595789 C-1.03814171,66.617059 -0.091591195,65.8698209 0.954830958,65.990576 C8.14723448,66.8205654 15.2715334,66.3940787 22.161834,64.8488151 C21.6492564,60.1798774 21.6054316,55.1012565 21.9341307,49.4488013 C22.7130774,36.0528548 25.2621454,18.0540768 29.8335486,2.82171112 C37.0589335,-21.253983 48.0607288,-34.1763773 63.760381,-30.3293767 C72.7533757,-28.1242575 81.2667579,-18.4335411 83.2884367,-10.0552414 C87.1020447,5.75193498 79.291465,27.1526184 63.8974311,43.995379 C53.3378951,55.5486691 40.4043589,63.8209414 26.3890229,67.7097415 C28.3205825,79.565654 33.7073534,88.0231105 44.0182254,93.5340618 Z M75.6166802,102.344701 C66.2975055,113.125429 58.5574801,125.060813 52.5422838,137.740007 C56.7671237,143.058431 60.8642321,148.430475 64.8309404,153.852933 C66.2338928,155.770808 67.5143338,157.544148 69.7307156,160.630093 C70.5060141,161.709735 70.9066388,162.267578 71.2813341,162.788947 C85.85123,183.062175 94.1586138,192.850041 106.540183,202.426631 C119.611573,198.69858 131.905946,192.68579 142.195445,184.909797 C159.095899,172.137764 170.930261,155.019358 178.219156,134.610606 C179.934864,129.807456 181.302503,125.321446 182.711334,119.809936 C179.748704,119.753593 176.80406,119.629489 173.88046,119.436434 C155.326716,118.211448 140.287553,114.015541 130.487045,106.108456 C123.992784,100.868023 119.971152,94.3946889 117.316883,85.8457306 C107.074634,92.9865074 96.7217409,97.9691809 85.5639507,100.657476 C82.288734,101.446534 78.9523826,102.009491 75.6166802,102.344701 Z M132.887941,103.155032 C141.946863,110.463802 156.293061,114.466373 174.132732,115.644214 C177.279885,115.85203 180.452851,115.978291 183.6476,116.024513 C184.642745,111.876547 185.697839,107.103154 186.939871,101.266314 C187.066259,100.672218 187.066259,100.672218 187.192625,100.077941 C192.034489,77.3077942 194.845489,66.9961475 200.485065,54.8635529 C184.895127,50.6096228 166.3447,50.9616597 148.807022,55.4089399 C141.57849,65.22855 132.599673,74.3369562 122.05631,82.3838417 C121.568645,82.7560559 121.080972,83.1234088 120.593216,83.4858854 C123.041924,91.9878193 126.763539,98.2130503 132.887941,103.155032 Z M79.5166399,98.0000226 C81.2439957,97.71926 82.9642386,97.3737099 84.6672801,96.9634165 C95.7183966,94.3008231 105.992953,89.2573803 116.234936,81.9523263 C115.798927,80.1957113 115.407103,78.3584909 115.051708,76.434751 C114.669827,74.3673538 114.333295,72.2955549 114.042095,70.2203977 C101.015371,77.9311479 89.4554046,87.3362091 79.5166399,98.0000226 Z M181.813158,135.884738 C174.286716,156.958616 162.026111,174.693584 144.500902,187.937757 C134.569512,195.443119 122.856649,201.357261 110.371526,205.250336 C129.830472,218.861848 155.034987,225.812652 177.536217,222.209798 C202.642672,218.189717 222.652471,201.775753 234.370355,179.181965 C245.288412,158.133606 249.227766,134.838906 246.125812,111.540274 C244.330207,112.031643 242.493286,112.508705 240.614636,112.972471 C222.461805,117.453614 204.258379,119.82647 186.637569,119.845047 C185.119929,125.882014 183.667788,130.692674 181.813158,135.884738 Z M68.1796435,165.001465 C67.8045122,164.47949 67.4034403,163.921024 66.6283545,162.841678 C64.4180446,159.764188 63.1426757,157.997872 61.7480367,156.091361 C58.1911465,151.229122 54.5284064,146.407452 50.7617647,141.628709 C43.3409539,158.435912 38.907291,176.448615 37.7885672,194.742383 C37.6982764,196.218981 37.6343517,197.638424 37.5989416,199.007305 C48.2139241,203.396412 59.7680666,206.096698 71.7029708,206.636359 C81.7922612,207.092618 92.0402916,206.020427 101.934222,203.637615 C90.3976329,194.317503 82.0617035,184.317607 68.1796435,165.001465 Z M33.9808612,194.511273 C35.1677769,175.102406 39.9949994,156.004866 48.0905909,138.268706 C39.4756455,127.524248 30.3332954,117.001481 20.6859682,106.72756 C14.9069565,100.573455 9.94941352,97.5365783 4.00725378,97.7632073 C-1.24604488,97.9631498 -5.86501352,100.994657 -9.43105194,105.799669 C-19.369178,119.191531 -19.4781154,136.542012 -11.3044483,154.205242 C-2.85333004,172.46995 13.5764372,188.024304 33.8361044,197.362932 C33.8729331,196.433819 33.9213909,195.483838 33.9808612,194.511273 Z M282.030975,91.4358966 C293.863766,82.5655939 299.984539,70.8527947 297.713527,60.2807116 C295.758988,51.1810117 287.600615,42.4437407 275.687541,36.0816796 C261.418823,28.4620003 243.826246,25.8982756 230.309133,30.3927859 C219.464306,33.9988216 211.726365,41.5381068 205.885276,52.5391858 C208.577377,53.452293 211.172074,54.5081795 213.649129,55.7096784 C233.870467,65.5183273 245.285319,83.6154911 249.248616,106.695606 C262.750783,102.676391 273.618167,97.7419433 282.030975,91.4358966 Z M165.968355,-4.96931235 C165.97636,-10.1098725 165.359664,-13.3306681 163.439022,-16.1875327 C161.081805,-19.6937813 156.315844,-22.166559 151.53857,-22.0069597 C147.413646,-21.8694034 143.556999,-19.979963 139.597127,-16.6250227 C129.03151,-7.67236175 123.135269,4.15134575 119.651366,20.2912575 C116.527776,34.7582973 115.691061,49.481349 117.147017,64.084087 C121.4974,61.7183012 125.997011,59.5325951 130.640816,57.5411813 C135.756897,55.3472461 141.087074,53.5196659 146.522544,52.0736723 C159.096423,34.5762928 165.935142,14.8645954 165.968355,-4.96931235 Z M118.803466,75.7468525 C119.042111,77.0386287 119.297142,78.2865448 119.571099,79.4928339 C119.62619,79.450913 119.681283,79.408927 119.736377,79.366876 C128.549713,72.6403788 136.229625,65.1616249 142.664854,57.1480699 C139.083892,58.2702533 135.566762,59.5664434 132.149046,61.0320668 C127.12948,63.1846189 122.282419,65.5698882 117.614553,68.1690063 C117.941697,70.7002989 118.337991,73.2269045 118.803466,75.7468525 Z M190.924566,100.865596 C190.798184,101.459949 190.798184,101.459949 190.671698,102.054505 C189.509391,107.516679 188.50807,112.06114 187.564878,116.041241 C204.576826,115.941782 222.15382,113.614173 239.697148,109.283489 C241.700678,108.788895 243.654516,108.279216 245.559119,107.753298 C241.851877,85.5856315 231.092442,68.3978752 211.979227,59.1267373 C209.498949,57.9236751 206.8893,56.8741114 204.173443,55.9750685 C198.540728,67.9794751 195.772885,78.0650913 190.924566,100.865596 Z M61.0768202,41.4365737 C75.6921585,25.4457913 83.0597071,5.258996 79.5793261,-9.16697406 C77.8717115,-16.2437199 70.3567282,-24.7979667 62.8489833,-26.6388966 C49.8826769,-29.8161255 40.1953578,-18.4376774 33.4884438,3.91042063 C29.0171861,18.8090918 26.5058132,36.5417078 25.7425109,49.6686091 C25.4422644,54.8317811 25.4735803,59.567991 25.8964257,63.8956898 C38.9999593,60.1425496 51.1224904,52.3277018 61.0768202,41.4365737 Z" id="Pattern" fill="#010101"/></g></g></g></g><g id="Dog" transform="translate(1530.353827, 1091.000000)"><path d="M54.0615573,4.48263191 C80.3223206,-4.08665214 135.044519,-9.56385837 161.372336,78.707916 C161.372336,78.707916 235.95774,78.3665541 278.194809,84.1829198 C327.491176,90.9705152 328.755298,113.425519 349.008733,124.142079 C396.505649,149.271819 431.361344,152.041254 431.53122,157.526169 C432.04287,174.552418 361.325679,153.912138 352.663695,151.020472 C352.663695,151.020472 365.938076,187.719075 347.919389,271.141309 C347.275237,274.124371 344.544733,276.193465 341.505344,275.986445 L332.759817,275.389612 C329.54455,275.168278 327.048183,272.492441 327.048183,269.262718 L327.048183,222.752714 C327.048183,220.402823 325.078351,218.537445 322.738076,218.667383 L322.599573,218.675091 C320.535206,218.789612 318.881954,220.432554 318.751145,222.500546 L315.759023,269.696577 C315.554565,272.929605 312.876824,275.446873 309.64287,275.446873 L302.912244,275.446873 C299.62113,275.446873 296.917008,272.843714 296.787298,269.549021 L293.882015,195.529655 C293.882015,195.529655 190.797802,220.223332 149.115847,218.875504 L142.940336,276.6042 C142.623756,279.569644 140.225221,281.87769 137.255084,282.077002 L134.087084,282.288426 C131.115847,282.486636 128.431511,280.516647 127.724702,277.618375 L115.413252,227.127651 C114.944977,225.209418 113.174107,223.899029 111.205374,224.014651 L110.596397,224.05099 C108.535328,224.173219 106.888672,225.816161 106.758962,227.879749 L103.723969,276.553546 C103.537099,279.544317 101.222107,281.96248 98.2475725,282.276313 L92.0467786,282.930406 C88.848,283.268465 85.9328244,281.070535 85.3700153,277.898072 L57.2361527,119.203344 C57.2361527,119.203344 -5.95346565,70.8576942 24.6514809,26.1150638 C31.7063817,15.8015307 42.1952977,8.35543735 54.0615573,4.48263191" id="Fill-1" fill="#94775e"/><path d="M208.782302,162.498049 C207.718241,152.743909 196.802821,147.467116 188.369478,152.459808 C177.079218,159.144995 163.453081,171.010073 182.510547,182.362007 C201.742791,193.816349 210.344318,176.816528 208.782302,162.498049" id="Fill-4" fill="#f0d5bc"/><path d="M85.1665466,23.661663 C84.1497527,28.1577292 80.9619664,31.2663245 78.0467908,30.6056241 C75.1316153,29.9427214 73.592684,25.7615891 74.6094779,21.265523 C75.6262718,16.7694568 78.8151573,13.6608615 81.7292336,14.322663 C84.6444092,14.9833634 86.1844397,19.1655969 85.1665466,23.661663" id="Fill-6" fill="#010101"/><path d="M56.8204214,43.4740856 C56.4104061,42.7175837 55.4650626,42.436786 54.7076885,42.8486226 C54.6549252,42.8772529 49.2785588,45.7546031 44.1781008,44.0015447 C41.2365435,42.9917743 38.9182534,40.5879261 37.2891847,36.85607 L37.0077802,36.2096848 L44.5474443,27.8408132 C45.4631084,26.8244358 44.8849099,25.1958093 43.5339481,24.9887899 L34.178345,23.5462607 C32.9274137,23.3546576 31.9051237,24.5373113 32.2766656,25.7496965 L35.2918718,35.6172568 L34.6037496,36.5620584 C34.5322992,36.6611634 27.2949252,46.3943813 17.1236885,42.469821 C16.326742,42.1625953 15.4187725,42.5612179 15.109887,43.3661712 C14.8010015,44.1711245 15.2022229,45.0740817 16.0046656,45.3835097 C25.2591389,48.9479883 32.4338565,43.3419455 35.4996275,40.238856 C37.4221924,43.6106304 39.9933069,45.8647198 43.1679023,46.9548755 C44.7101313,47.4856381 46.2545588,47.6871518 47.7110473,47.6871518 C52.2750779,47.6871518 55.9915969,45.7006459 56.196055,45.5905292 C56.9512305,45.1786926 57.2315359,44.2305875 56.8204214,43.4740856" id="Fill-8" fill="#010101"/><path d="M110.031389,105.09651 C122.684702,122.320969 141.036458,62.8436187 146.683237,42.996179 C138.595053,28.6215409 129.423023,18.7231479 119.92342,12.0842101 C115.371481,26.0646304 96.6822595,86.9228444 110.031389,105.09651" id="Fill-10" fill="#65433e"/><path d="M239.41495,128.195146 C265.268995,168.733519 308.738308,114.007706 304.91956,90.8270331 C297.929515,88.0289669 289.278522,85.7088074 278.194919,84.1825895 C268.063255,82.7874105 256.068385,81.7468074 243.69098,80.9704844 C232.368843,88.6786556 223.307835,102.939874 239.41495,128.195146" id="Fill-12" fill="#f0d5bc"/><path d="M19.236971,69.3708981 C11.3191695,78.5238008 -7.77237252,104.127042 3.4453374,127.22733 C14.0046046,148.972081 26.5600855,112.236038 32.0430779,93.0779292 C26.8810626,86.0656957 22.1422534,78.0095556 19.236971,69.3708981" id="Fill-14" fill="#65433e"/></g><g id="Object/Floor" transform="translate(318.353827, 898.000000) scale(1 1)"><defs><path d="M0.2288,0 L157.5878,2.467 L139.6958,150.317 C138.4498,160.618 134.3088,170.429 127.4358,178.202 C118.4958,188.314 103.0808,197.81 77.1818,195.344 C51.0968,192.859 34.0198,181.742 23.4938,171.317 C14.3728,162.283 9.0308,150.118 8.2788,137.302 L0.2288,0 Z" id="objectfloorplant-2-path-1"/></defs><g id="Object/Floor/Plant 2" stroke="none" stroke-width="1" fill="none" fill-rule="evenodd"><g id="Plant-2" transform="translate(58.000000, 0.000000)"><path d="M24.6592,46.7744 C24.9622,46.8654 55.2902,56.3264 85.9432,90.2654 C103.9082,110.1574 118.5042,134.4604 129.3262,162.5004 C142.8322,197.4944 150.4632,238.4424 152.008059,284.2064 C152.0342,284.9884 151.4212,285.6444 150.6392,285.6714 L150.5902,285.6714 C149.8292,285.6714 149.2002,285.0674 149.1742,284.3024 C147.6412,238.8564 140.0732,198.2194 126.6822,163.5214 C115.9862,135.8064 101.5702,111.7994 83.8382,92.1654 C53.7092,58.8054 24.1342,49.5764 23.8392,49.4864 C23.0892,49.2604 22.6662,48.4694 22.8932,47.7204 C23.1202,46.9704 23.9162,46.5434 24.6592,46.7744 Z M231.5852,59.9691 C232.3512,60.1351 232.8352,60.8901 232.6692,61.6551 C220.5232,117.5321 159.2822,282.4751 158.6652,284.1351 C158.4532,284.7051 157.9122,285.0591 157.3372,285.0591 C157.1732,285.0591 157.0062,285.0301 156.8432,284.9691 C156.1092,284.6971 155.7352,283.8801 156.0092,283.1471 C156.6252,281.4901 217.7952,116.7341 229.9002,61.0531 C230.0652,60.2881 230.8162,59.7971 231.5852,59.9691 Z M33.5507,165.8888 C33.7227,165.9898 50.9527,176.1708 70.4047,195.5468 C88.3647,213.4358 111.9857,243.0728 122.5217,282.6638 C122.7227,283.4198 122.2727,284.1958 121.5157,284.3978 C121.3937,284.4298 121.2717,284.4458 121.1507,284.4458 C120.5237,284.4458 119.9507,284.0268 119.7817,283.3918 C99.9227,208.7678 32.7957,168.7308 32.1197,168.3348 C31.4437,167.9388 31.2167,167.0708 31.6127,166.3958 C32.0067,165.7188 32.8767,165.4938 33.5507,165.8888 Z" id="Combined-Shape" fill="#54a196"/><path d="M130.2509,252.1354 C133.301866,252.780047 134.997644,253.898272 135.710079,255.310949 C136.1495,254.883775 136.637501,254.453278 137.1731,254.0201 C145.597286,247.205696 151.611694,258.383145 155.073017,268.40315 C161.004344,262.960212 170.14069,256.814107 171.344,269.1933 C171.41999,269.975062 171.431913,270.688296 171.386143,271.337977 C178.88709,267.686294 187.724946,265.97632 192.1411,274.5634 C202.1351,293.9964 158.5491,279.8384 158.5491,279.8384 C158.5491,279.8384 159.812031,278.735906 161.867409,277.213785 C160.379647,277.041394 158.860661,276.716916 157.427684,276.33087 C158.173312,279.253802 158.5491,281.2261 158.5491,281.2261 C158.5491,281.2261 151.248041,279.060848 144.322903,275.395262 C137.885143,276.99664 128.077996,278.051175 126.78809,270.118835 C122.824186,273.621565 119.0999,276.2124 119.0999,276.2124 L119.096687,276.180425 C118.994287,275.14335 116.57108,249.24538 130.2509,252.1354 Z M90.803,272.0408 C95.966,256.3168 118.847,278.2398 118.847,278.2398 C118.847,278.2398 84.445,291.4048 90.803,272.0408 Z M78.5492,256.1904 C76.7762,237.6894 109.2162,251.6284 109.2162,251.6284 C109.2162,251.6284 80.3232,274.6904 78.5492,256.1904 Z M167.1556,256.7964 C167.1556,256.7964 201.0246,222.3714 206.8546,247.9124 C211.4266,267.9414 167.1556,256.7964 167.1556,256.7964 Z M155.387796,222.722146 C161.174344,216.494192 167.83344,212.7328 169.4394,225.8116 C169.959947,230.048331 167.243041,232.457525 163.498746,233.800311 C166.70163,243.710695 167.1556,256.7964 167.1556,256.7964 C167.1556,256.7964 142.76879,246.105962 142.322159,234.572402 C138.251772,235.818603 131.302125,237.572154 125.838485,237.036755 C121.619888,244.817314 109.2162,251.6284 109.2162,251.6284 C109.2162,251.6284 109.637826,221.700415 119.513993,223.347282 C124.187102,217.89749 137.162311,226.775958 142.921978,231.181043 C143.81796,228.957593 145.7681,226.738188 149.1106,224.5924 C151.394615,223.126184 153.391863,222.677131 155.137998,222.99254 Z M90.2074,220.9624 C90.2074,220.9624 95.7834,251.1214 79.8164,242.5044 C63.8504,233.8874 90.2074,220.9624 90.2074,220.9624 Z M71.1996,198.6597 C71.1996,198.6597 80.8306,230.8467 63.8496,227.0447 C46.8696,223.2427 71.1996,198.6597 71.1996,198.6597 Z M217.4041,213.7653 C226.8251,237.9333 179.9261,222.0943 179.9261,222.0943 C179.9261,222.0943 211.0191,197.3863 217.4041,213.7653 Z M166.0451,188.2253 C181.0081,179.7273 179.0931,222.0943 179.0931,222.0943 C179.0931,222.0943 143.5581,200.9953 166.0451,188.2253 Z M103.3874,197.3924 C118.0864,198.9124 90.2074,220.9624 90.2074,220.9624 C90.2074,220.9624 78.9644,194.8654 103.3874,197.3924 Z M50.1644,179.398 C50.1644,179.398 64.8634,218.681 45.8554,211.332 C26.8484,203.982 50.1644,179.398 50.1644,179.398 Z M139.8138,200.8413 C139.8138,200.8413 110.1878,217.1363 110.1878,199.1493 C110.1878,181.1613 139.8138,200.8413 139.8138,200.8413 Z M156.7429,171.8506 C177.6929,178.6226 139.3909,199.9956 139.3909,199.9956 C139.3909,199.9956 135.7929,165.0786 156.7429,171.8506 Z M85.1386,170.2737 C101.8656,175.5967 71.1996,198.6597 71.1996,198.6597 C71.1996,198.6597 68.4116,164.9517 85.1386,170.2737 Z M33.2593124,167.475236 C31.5756414,162.481226 18.9602346,123.089048 41.0408,126.1757 C62.7121779,129.20528 38.1038689,162.015192 33.9987288,167.281374 C34.1295278,167.249204 34.1976,167.2329 34.1976,167.2329 C34.1976,167.2329 29.8886,207.5299 10.6276,190.2949 C-3.1928,177.9298 26.95522,169.14166 33.123028,167.507683 Z M193.2513,183.2281 C193.2513,183.2281 226.0103,153.8001 229.0643,180.4521 C231.0933,198.1581 193.2513,183.2281 193.2513,183.2281 Z M172.9853,157.1321 C186.3063,147.5641 193.2513,183.2281 193.2513,183.2281 C193.2513,183.2281 153.2743,171.2901 172.9853,157.1321 Z M62.3294,149.492 C84.6324,153.8 50.1644,179.398 50.1644,179.398 C50.1644,179.398 45.4064,146.222 62.3294,149.492 Z M129.4447,166.5601 C129.4447,166.5601 109.3407,188.7801 104.4737,169.9461 C101.0057,156.5221 129.4447,166.5601 129.4447,166.5601 Z M147.0077,135.6641 C164.5727,141.1661 129.4447,166.5601 129.4447,166.5601 C129.4447,166.5601 129.4447,130.1631 147.0077,135.6641 Z M117.806,139.6851 L117.790108,139.716812 C117.27272,140.743933 104.20738,166.28924 91.143,153.0171 C77.811,139.4741 117.806,139.6851 117.806,139.6851 Z M239.8911,137.4216 C249.8851,158.7976 205.4661,147.4156 205.4661,147.4156 C205.4661,147.4156 229.8971,116.0446 239.8911,137.4216 Z M177.4271,121.8746 C189.5201,107.7996 205.4661,147.4156 205.4661,147.4156 C205.4661,147.4156 160.4921,141.5856 177.4271,121.8746 Z M131.9834,104.5569 C149.7594,107.7319 116.7484,137.5689 116.7484,137.5689 C116.7484,137.5689 111.0224,100.8149 131.9834,104.5569 Z M99.6068,109.6363 C99.6068,109.6363 97.9148,144.1293 79.9268,131.2213 C65.1568,120.6203 99.6068,109.6363 99.6068,109.6363 Z M256.2695,104.9396 C260.4345,133.8116 218.0355,109.5826 218.0355,109.5826 C218.0355,109.5826 251.4405,71.4586 256.2695,104.9396 Z M82.6781,88.687 C82.6781,88.687 78.5951,126.573 62.9981,114.503 C45.2231,100.749 82.6781,88.687 82.6781,88.687 Z M110.3998,74.9323 C130.0798,77.8943 99.6068,109.6363 99.6068,109.6363 C99.6068,109.6363 90.3008,71.9063 110.3998,74.9323 Z M190.7532,79.3997 C209.9702,67.5117 218.2962,108.4077 218.2962,108.4077 C218.2962,108.4077 163.8242,96.0557 190.7532,79.3997 Z M53.264,63.2935 C53.264,63.2935 54.534,108.3665 34.854,97.3625 C15.173,86.3585 53.264,63.2935 53.264,63.2935 Z M82.2552,87.6284 C82.2552,87.6284 61.1382,49.0124 80.3502,48.6914 C105.7442,48.2684 82.2552,87.6284 82.2552,87.6284 Z M25.5423,48.6919 C25.5423,48.6919 24.2723,97.9979 3.5343,79.7989 C-11.3397,66.7459 25.5423,48.6919 25.5423,48.6919 Z M197.4155,29.7071 C225.4545,10.8291 230.4525,64.6861 230.4525,64.6861 C230.4525,64.6861 177.9485,42.8131 197.4155,29.7071 Z M277.3695,47.196 C290.9725,71.904 231.2845,61.354 231.2845,61.354 C231.2845,61.354 263.7655,22.488 277.3695,47.196 Z M53.264,63.2935 C53.264,63.2935 30.943,22.0035 54.956,21.1825 C79.715,20.3355 53.264,63.2935 53.264,63.2935 Z M25.5423,48.6919 L25.4444552,48.594186 C23.3646057,46.5062569 -10.92083,11.5535 14.3273,1.2909 C40.3553,-9.2901 25.5423,48.6919 25.5423,48.6919 Z" id="Combined-Shape" fill="#40664f"/><g id="Base" transform="translate(51.000000, 280.998600)"><mask id="objectfloorplant-2-mask-2" fill="#ffffff"><use xlink:href="#objectfloorplant-2-path-1" fill="#ffffff"/></mask><use id="Mask" fill="#d59058" xlink:href="#objectfloorplant-2-path-1"/><path d="M21.8821454,166.976155 C29.6034071,169.861751 37.7851393,172.227187 46.3965987,173.959199 C48.3643527,174.355249 50.3545312,174.717943 52.3667804,175.046212 C53.3957809,175.213799 54.4297732,175.372547 55.4694793,175.522127 C59.4296778,176.092158 63.4734845,176.528949 67.5975009,176.822705 C68.7118205,176.902078 69.8290063,176.970747 70.9490324,177.028605 C72.021164,177.083699 73.0951927,177.129149 74.1717983,177.164614 C74.1844544,177.165321 74.1977965,177.165759 74.211139,177.166195 L75.3194863,177.198609 C93.442461,177.67526 112.290864,175.323008 131.756413,169.705029 C131.852891,169.677185 131.94976,169.65693 132.046382,169.643911 L132.190939,169.630068 C132.192275,169.629987 132.193611,169.629907 132.194947,169.629828 C133.107002,169.575292 133.968339,170.156487 134.232571,171.072013 C134.381,171.586301 134.313772,172.111711 134.084271,172.551545 C134.077118,172.565375 134.069549,172.57948 134.061813,172.593494 L133.990248,172.712992 C133.829049,172.962389 133.612155,173.176802 133.351,173.335519 C133.203123,173.425705 133.040412,173.497984 132.865498,173.548467 L131.919,173.8174 L131.650013,173.89506 L131.650013,173.89506 L130.435922,174.233946 C113.045819,179.027668 96.126901,181.270215 79.7621296,181.258842 C79.3775376,181.258275 78.9935929,181.256765 78.6099548,181.254017 C77.1739056,181.244018 75.7428113,181.216385 74.3160652,181.171611 C72.3478645,181.109564 70.3874765,181.015158 68.4355168,180.888648 L67.3132991,180.812595 L67.3132991,180.812595 L66.158,180.7254 L66.0719918,180.719501 C66.0409249,180.717068 66.0098625,180.714627 65.9788046,180.712178 C63.9456447,180.552126 61.9322948,180.357864 59.9384034,180.130766 L58.7258362,179.988055 C57.5158767,179.841597 56.3131638,179.683038 55.1177678,179.512635 L53.9249337,179.338587 C42.0196812,177.555892 30.8484653,174.5976 20.4817546,170.723345 C19.4470795,170.336665 18.9217753,169.18443 19.3084549,168.149755 L19.3688074,168.005452 L19.3688074,168.005452 L19.3085549,168.149455 C19.3822082,167.952374 19.4836367,167.773773 19.6067376,167.616436 L19.7029314,167.502763 C19.8483931,167.343168 20.0177535,167.209621 20.2031277,167.105717 C20.4003391,166.994839 20.6163336,166.917644 20.8409914,166.878558 L20.9869881,166.858968 C21.0360243,166.85413 21.0853662,166.8511 21.1349182,166.84992 C21.3827785,166.843722 21.6357941,166.884088 21.8821454,166.976155 Z M8.66604521,127.059905 L8.768,127.1094 L9.48978463,127.461357 C13.8996504,129.59426 18.5661762,131.569941 23.4784347,133.348357 L24.4024602,133.679789 C26.4318599,134.399758 28.5025662,135.086054 30.6138229,135.735904 C34.5502808,136.947275 38.6273522,138.032138 42.8404675,138.972366 C43.1693811,139.046048 43.4998449,139.118728 43.831139,139.190513 C48.7498124,140.256011 53.8514019,141.124717 59.1283533,141.768233 C60.8227695,141.974864 62.5242807,142.156626 64.23279,142.313126 L65.2588346,142.404292 C67.6675083,142.610323 70.0900075,142.766153 72.5260622,142.87069 C72.8597618,142.884713 73.1928535,142.898036 73.5261975,142.910399 L74.5671489,142.946153 C76.3032635,143.000039 78.0461825,143.02788 79.7958092,143.029282 L80.8462894,143.026648 C100.121654,142.92558 120.206302,139.616064 140.971358,132.57629 C141.170613,132.508738 141.373113,132.47439 141.572842,132.470277 L141.722126,132.473114 C142.167557,132.497456 142.591353,132.671102 142.925007,132.960236 L143.032693,133.060545 C143.241211,133.270131 143.406283,133.529376 143.50761,133.828258 L143.50771,133.828558 C143.862355,134.874646 143.30183,136.010165 142.255742,136.36481 C121.239574,143.489717 100.880085,146.871695 81.3194144,147.023951 L80.2721863,147.028721 C79.9233989,147.029383 79.574867,147.029018 79.2265914,147.027629 L78.1826346,147.020693 C73.3449311,146.97292 68.5569905,146.727546 63.8209918,146.292437 C63.4507925,146.258137 63.0800126,146.22288 62.7095528,146.186463 L61.6908655,146.083603 C60.6728877,145.977517 59.6573408,145.862663 58.6442467,145.739117 C56.8288368,145.517731 55.0335791,145.270293 53.258763,144.997888 C52.0635499,144.814163 50.8768517,144.619268 49.6995243,144.413368 C45.7721585,143.726781 41.9497806,142.917621 38.2349236,141.998349 C37.2486136,141.754004 36.2698882,141.502173 35.2988037,141.242811 L34.2989888,140.972655 C30.3971392,139.904012 26.6203411,138.713738 22.9726474,137.417023 C21.6487785,136.946145 20.3412943,136.461271 19.051026,135.96309 L18.1458247,135.61056 C14.2351935,134.072193 10.4851352,132.411627 6.90115479,130.649495 C5.90991667,130.162134 5.50144359,128.963493 5.98880462,127.972255 L6.049,127.8594 L6.06306707,127.834348 C6.4317463,127.210996 7.09710711,126.853278 7.78694692,126.853953 C8.08269255,126.854542 8.38283432,126.920659 8.66604521,127.059905 Z M6.4772319,89.1655667 C20.7964789,96.5464164 38.2288465,102.329849 58.3338627,104.879187 C85.7169638,108.351394 114.933234,105.327189 145.579437,94.1650688 C146.617307,93.7870501 147.765112,94.3219659 148.143131,95.3598366 C148.52115,96.3977073 147.986234,97.5455125 146.948363,97.9235312 C115.692487,109.30771 85.8345579,112.398334 57.8306873,108.847413 C37.2332985,106.235641 19.3590591,100.305611 4.6445681,92.7210333 C3.66275309,92.2149572 3.27709052,91.0087831 3.78316665,90.0269681 C4.28924278,89.0451531 5.49541688,88.6594905 6.4772319,89.1655667 Z M2.72307192,41.4769231 L2.87081084,41.4783038 C3.16614839,41.4918004 3.46303683,41.5712595 3.73974434,41.7230186 C4.06442535,41.9010885 4.3910409,42.0784012 4.71958453,42.2549325 C6.75363398,43.3479025 8.86118408,44.4106663 11.0410716,45.4377167 C16.3287349,47.9290011 22.0428417,50.2104707 28.1607494,52.1993806 C33.807286,54.0350226 39.7974903,55.6213886 46.1143838,56.8938109 C49.6230524,57.6006297 53.2332532,58.2106549 56.9413269,58.7126816 C59.7940463,59.098904 62.6664881,59.4145888 65.5582001,59.6578897 C65.851002,59.6824488 66.1433012,59.7062852 66.4357967,59.7293811 L67.3933255,59.8023682 C69.9477973,59.9896811 72.5171483,60.1205223 75.1010695,60.1936294 L76.0704223,60.2182358 C76.717312,60.2328993 77.3651099,60.2439446 78.0138112,60.2513519 L78.9878401,60.2598319 C79.3126419,60.2617141 79.6376689,60.2626843 79.9629205,60.2627402 L80.9390487,60.260062 C103.412369,60.1375548 126.95232,55.6497666 151.36052,45.9869198 C151.605048,45.8901148 151.857237,45.8448712 152.105065,45.845986 L152.253442,45.8522762 C152.668774,45.8851675 153.064757,46.0476549 153.383251,46.314576 C153.430468,46.3543275 153.475753,46.3959949 153.519165,46.4398541 C153.584291,46.5054491 153.644939,46.5758315 153.700787,46.6508324 C153.79811,46.7819329 153.880749,46.926558 153.94555,47.0837619 C153.94926,47.0921218 153.95295,47.1012498 153.95658,47.1104196 C154.363161,48.1374374 153.860198,49.299599 152.83318,49.7061802 C126.289635,60.2143789 100.708189,64.7247998 76.3613557,64.2255309 C74.1948249,64.1810138 72.0379899,64.0969164 69.891124,63.973843 L68.9190816,63.9154959 C68.6162097,63.8964472 68.3135373,63.8766228 68.0110651,63.8560244 C66.0193964,63.7203238 64.0357098,63.5510797 62.0608593,63.3488214 C61.4811124,63.2895117 60.9027316,63.2273556 60.3251146,63.1623743 C59.973966,63.1228061 59.6225003,63.0821889 59.2713187,63.0405273 L58.3145559,62.9244176 C57.6769846,62.8452213 57.0403552,62.7625818 56.4046731,62.6765184 C51.9890048,62.0786923 47.7080167,61.3311268 43.5662909,60.4515233 C40.7952505,59.8629854 38.0867746,59.2154393 35.4419984,58.5140986 C33.79234,58.0766632 32.1671732,57.6181912 30.5671313,57.1400693 C30.2279508,57.038706 29.89003,56.9365101 29.5532405,56.8334441 C29.0711306,56.685912 28.5918004,56.5367348 28.1147932,56.3858139 C27.0406344,56.0459604 25.9778058,55.6971171 24.9268731,55.3398338 C23.7155652,54.9280261 22.5197689,54.5049003 21.3399465,54.0711839 C14.798249,51.6663988 8.74775713,48.9360808 3.21601528,45.9871342 C2.75127112,45.7393213 2.28989323,45.4898632 1.83219803,45.2389235 C1.82723256,45.2362657 1.82159383,45.2331737 1.81595566,45.2300814 C0.847479379,44.6989247 0.49296184,43.4832319 1.02411857,42.5147557 C1.37822306,41.8691048 2.03656578,41.4963245 2.72307192,41.4769231 Z M-2.79290394,5.27216639 C12.5918456,13.8223797 31.9883852,20.7814444 54.8086353,23.9122182 C86.7780402,28.29819 121.035163,24.3930034 157.03695,9.95037597 C158.148905,9.50429916 159.407182,10.0561206 159.847389,11.1829037 C160.287596,12.3096867 159.743036,13.5847416 158.63108,14.0308184 C121.925791,28.7556657 86.9197245,32.7462292 54.2275983,28.2611052 C30.8450316,25.0531856 10.9505392,17.915466 -4.87547185,9.12001771 C-5.9240445,8.53726401 -6.30788188,7.20347793 -5.73279663,6.14092313 C-5.15771138,5.07836833 -3.84147659,4.68941268 -2.79290394,5.27216639 Z" id="Combined-Shape" fill="#ebf3ec" mask="url(#objectfloorplant-2-mask-2)"/></g></g></g></g><g id="Object/Chair" transform="translate(1244.353827, 1059.000000) scale(-1, 1) translate(-1244.353827, -1059.000000) translate(1008.353827, 747.000000) scale(1 1)"><g id="Object/Chair/Stool" stroke="none" stroke-width="1" fill="none" fill-rule="evenodd"><g id="Chair" transform="translate(49.000000, 258.000000)"><path d="M358.07319,366 C353.119243,366 348.838744,362.220676 348.241233,357.081406 L317.714205,94.3592881 C314.26003,64.6299624 289.514273,42.2117445 260.151293,42.2117445 L178.702919,42.2117445 C164.120848,42.2117445 150.180251,47.7574699 139.44903,57.8261601 C128.718807,67.8938316 122.144185,81.5982113 120.936174,96.414996 L99.7924697,355.747946 C99.33984,361.30997 94.5597502,365.44176 89.0922228,364.981314 C83.6366855,364.519849 79.5810032,359.635251 80.0346321,354.072208 L101.179335,94.7412952 C102.800009,74.8565489 111.622792,56.4651959 126.023013,42.952329 C140.423233,29.4404809 159.131929,22 178.702919,22 L260.151293,22 C299.557058,22 332.76789,52.084847 337.403099,91.9816755 L367.930127,354.703793 C368.5746,360.247481 364.688778,365.272658 359.252226,365.92971 C358.85555,365.977589 358.462871,366 358.07319,366" id="Fill-37" fill="#40664f"/><path d="M278.07319,366 C273.119243,366 268.838744,362.220676 268.241233,357.081406 L237.714205,94.3592881 C234.26003,64.6299624 209.514273,42.2117445 180.151293,42.2117445 L98.7029192,42.2117445 C84.1208476,42.2117445 70.1802514,47.7574699 59.4490297,57.8261601 C48.7188073,67.8938316 42.1441855,81.5982113 40.9361737,96.414996 L19.7924697,355.747946 C19.33984,361.30997 14.5597502,365.44176 9.09222276,364.981314 C3.63668552,364.519849 -0.418996841,359.635251 0.0346320797,354.072208 L21.1793352,94.7412952 C22.8000095,74.8565489 31.6227922,56.4651959 46.0230125,42.952329 C60.4232328,29.4404809 79.1319287,22 98.7029192,22 L180.151293,22 C219.557058,22 252.76789,52.084847 257.403099,91.9816755 L287.930127,354.703793 C288.5746,360.247481 284.688778,365.272658 279.252226,365.92971 C278.85555,365.977589 278.462871,366 278.07319,366" id="Fill-36" fill="#54a196"/><path d="M332.211445,229 L29.7885546,229 C22.7246199,229 17,225.195091 17,220.5 C17,215.805766 22.7246199,212 29.7885546,212 L332.211445,212 C339.27538,212 345,215.805766 345,220.5 C345,225.195091 339.27538,229 332.211445,229" id="Fill-38" fill="#54a196"/><path d="M271.903889,229 C272.202243,229 270.03154,212 270,212 L341.860225,212 C343.594523,212 345,215.805766 345,220.5 C345,225.195091 343.594523,229 341.860225,229 L271.903889,229 Z" id="Fill-38-Copy" fill="#40664f"/><path d="M312.962292,42 L37.0387061,42 C27.6281238,42 20,32.5971986 20,21 C20,9.40280138 27.6281238,0 37.0387061,0 L312.962292,0 C322.371876,0 330,9.40280138 330,21 C330,32.5971986 322.371876,42 312.962292,42" id="Fill-39" fill="#6ec0b5"/></g></g></g><g transform="translate(1237.853827, 890.500000) scale(-1, 1) translate(-1237.853827, -890.500000) translate(753.353827, 407.000000) scale(1 1)" id="Master/Character/Sitting"><defs><path d="M275.684414,0.876652922 C298.838059,1.54914435 329.906472,9.13626937 355.7471,15.2297529 L355.731944,15.2730262 C397.943463,24.6870841 452.971125,41.5664426 466.9347,60.6071529 C489.4187,91.2671529 484.8307,126.127153 444.6317,165.644153 C415.2977,194.481153 386.9717,210.585153 372.4107,216.074153 C363.858947,207.086013 354.27259,195.452866 345.166172,184.184251 L345.5431,187.063753 C345.8052,205.151453 195.8084,217.517053 146.0664,197.369053 L149.907924,169.277823 C138.376043,183.58138 125.055547,200.37944 113.5941,212.425753 C99.0331,206.935753 70.7081,190.832753 41.3741,161.994753 C1.1741,122.477753 -11.4139,87.6187529 11.0701,56.9587529 C23.1971,40.4207529 69.0261,26.2177529 108.6751,16.6397529 C108.048715,16.8278037 108.709162,16.7365391 110.005927,16.5033439 C127.558487,12.2104677 191.200137,-1.57717031 275.684414,0.876652922 Z M162.310363,78.5613735 L87.8171,104.583753 C87.8171,104.583753 122.608609,134.324697 151.917069,154.584908 L162.310363,78.5613735 Z M332.466363,87.1363735 L341.108096,153.169863 C367.388419,133.830342 393.927617,109.395078 395.144211,108.27232 L395.1877,108.232153 L332.466363,87.1363735 Z" id="mastercharactersitting-path-1"/></defs><g id="Master/Character/Sitting" stroke="none" stroke-width="1" fill="none" fill-rule="evenodd"><g id="Bottom/Sitting" transform="translate(15.000000, 331.000000) scale(1 1)"><g id="Bottom/Sitting/Crossed" stroke="none" stroke-width="1" fill="none" fill-rule="evenodd"><g id="Legs" transform="translate(246.000000, 109.000000)"><path d="M75.5,14 L173,14 C174.104569,14 175,14.8954305 175,16 L175,161 C175,162.104569 174.104569,163 173,163 L75.5,163 C34.3547861,163 1,129.645214 1,88.5 C1,47.3547861 34.3547861,14 75.5,14 Z" id="Rectangle" fill="#010101"/><path d="M457.0754,373.4699 L349.2674,140.0609 C349.2674,116.8949 348.3064,104.4119 332.0364,90.2519 C312.8824,73.5799 232.9984,34.7589 211.8254,25.7489 C190.5404,16.6909 191.473654,1.0009 191.473654,1.0009 L23.6584,1.0009 C23.6584,1.0009 -73.0828187,163.32922 128.262581,163.32922 L215.1884,164.3289 L118.9084,355.6939 L220.4684,414.9369 L293.4544,257.9889 L336.2994,396.5969 L457.0754,373.4699 Z" id="Pants" fill="#010101"/><g id="Shoes" transform="translate(101.937905, 358.461700)"><g id="Shoe-2" transform="translate(243.697495, 10.099725)"><path d="M13.003,73.5388746 L0,25.8578746 L100.484,6.80087455 L105.67,20.6968746 C108.867,29.2658746 116.969,35.0778746 126.113,35.2038746 C139.919,35.3938746 158.631,37.9318746 160.256,50.1138746 L25.186,80.8478746 C19.822,82.0678746 14.45,78.8448746 13.003,73.5388746" id="Fill-3" fill="#de7e57"/><path d="M130.037179,27.0360105 C134.346143,26.9423929 137.005403,22.2954537 134.903908,18.5325084 C133.202681,15.4874923 129.19313,14.6633871 126.428547,16.7904476 L112.616869,27.4130477 L130.037179,27.0360105 Z M108.981253,27.6861015 L125.209107,15.2052141 C128.940955,12.3339428 134.353294,13.4463705 136.649975,17.5571878 C139.486665,22.636576 135.897107,28.9091682 130.080538,29.0355404 L109.612538,29.4785404 C108.646919,29.4994398 108.215653,28.2749264 108.981253,27.6861015 Z M118.717795,10.3078678 C120.671095,6.46595059 117.831762,1.92602561 113.522767,2.00092024 C110.034597,2.06220581 107.414341,5.20552846 107.98761,8.67928742 L110.191468,25.3852665 L118.717795,10.3078678 Z M108.59949,28.6095617 L106.00957,8.97304909 C105.242148,4.32715808 108.779259,0.0839528628 113.487822,0.00122556622 C119.304678,-0.0998772189 123.137286,6.02823497 120.47968,11.2532788 L110.46138,28.9709788 C109.988934,29.8065148 108.725026,29.5611739 108.59949,28.6095617 Z" id="Combined-Shape" fill="#b8b5ab"/></g><g id="Shoe-1"><path d="M22.249395,-8.52651283e-14 L107.839395,50.11 L102.704395,64.024 C99.537395,72.604 101.886395,82.294 108.734395,88.356 C119.074395,97.506 131.600395,111.638 124.884395,121.93 L5.46439497,58.108 C0.603394972,55.534 -1.36560503,49.587 0.999394972,44.621 L22.249395,-8.52651283e-14 Z" id="Fill-10" fill="#de7e57"/><path d="M120.129739,68.9868288 C124.395554,68.3689154 126.468859,63.4334634 123.924124,59.9550914 C121.863331,57.1392705 117.783953,56.8094112 115.309433,59.247337 L103.531206,71.2017837 L120.129739,68.9868288 Z M125.538171,58.7740527 C128.973374,63.4695953 126.174564,70.132095 120.405369,70.9677132 L111.90715,72.1017675 L121.096141,72.6079217 C125.797636,72.8675839 129.172715,77.2405408 128.231824,81.8542362 C127.069126,87.5551348 120.256077,89.9675736 115.765212,86.2682682 L99.9632124,73.2522682 C99.2757649,72.6860224 99.6235099,71.6135319 100.438014,71.491593 L113.895253,57.8331678 C117.249827,54.5279928 122.756518,54.9732649 125.538171,58.7740527 Z M103.587601,73.6465363 L117.036799,84.7245496 C120.363708,87.4650581 125.410811,85.6779247 126.272163,81.4545786 C126.96917,78.0367743 124.468879,74.797245 120.985996,74.6048864 L103.587601,73.6465363 Z" id="Combined-Shape" fill="#b8b5ab"/></g></g><path d="M150.0579,0.0009 C150.361952,0.0009 150.649488,0.139232223 150.839246,0.376801658 C150.986043,0.560586298 151.229959,0.891412194 151.5386,1.35297095 C152.047339,2.1137667 152.554983,2.97181091 153.02891,3.91134482 C155.10121,8.01955972 155.889058,12.2722405 154.598975,16.3020346 C154.518389,16.5537581 154.429762,16.803416 154.333002,17.0509272 C167.694369,16.7435015 181.881896,16.2081202 196.917076,15.4233594 C197.46861,15.3945721 197.939053,15.818342 197.969225,16.369876 C197.996628,16.92141 197.572858,17.3918533 197.021324,17.4206406 C192.708004,17.6457742 188.464188,17.8504147 184.289301,18.0350498 C184.36813,18.1495871 184.451953,18.2698219 184.539855,18.3931285 C185.293054,19.449701 186.182943,20.507246 187.201495,21.4919638 C190.207402,24.39802 193.66855,26.0651334 197.543092,25.9099047 C200.81737,25.7784737 203.685106,25.4672815 206.14682,25.0317357 C207.307574,24.8263661 208.298696,24.6071299 209.120308,24.3890015 C209.603308,24.2607707 209.916971,24.1636003 210.061398,24.1124568 C210.582005,23.928103 211.153489,24.2006904 211.337843,24.7212978 C211.522197,25.2419053 211.24961,25.8133893 210.729002,25.9977432 C210.53408,26.0667675 210.168923,26.1798906 209.633506,26.3220373 C208.757759,26.554538 207.711679,26.7859309 206.495264,27.0011485 C203.945205,27.452325 200.987865,27.7732406 197.623232,27.9082984 C193.13112,28.0882693 189.177034,26.1837251 185.811365,22.9298579 C184.699029,21.854471 183.731586,20.7047609 182.911299,19.5540783 C182.484594,18.9555053 182.173362,18.466645 181.980117,18.1340795 C171.949347,18.563927 162.320589,18.8760401 153.085862,19.0786597 C152.974166,19.1248471 152.852431,19.1505737 152.726935,19.1528374 C152.65229,19.1541837 152.65229,19.1541837 152.299732,19.1602065 C151.951955,19.1660592 151.548511,19.1725797 151.094001,19.179601 C149.795632,19.1996584 148.348225,19.2197145 146.788576,19.2384331 C144.059284,19.2711894 141.328644,19.2959122 138.66372,19.3101652 C138.052144,19.316378 137.441317,19.3219781 136.83237,19.3270695 L136.835481,19.3022641 C136.029046,31.122948 144.037987,41.7805349 155.654435,44.3966178 C184.191351,50.8211903 215.233099,58.4860907 243.406083,66.5731409 C284.433489,78.3500508 311.753936,88.886615 320.317035,97.5752588 C332.87589,110.318286 341.170072,120.939515 346.022004,129.549904 C347.734519,132.588987 348.893162,135.165889 349.599931,137.294145 C350.035757,138.606526 350.223267,139.496449 350.264183,139.976227 C350.311112,140.526515 349.90306,141.010654 349.352773,141.057583 C348.802485,141.104512 348.318346,140.69646 348.271417,140.146173 C348.266397,140.087315 348.242473,139.926221 348.186602,139.661055 C348.087414,139.190312 347.930186,138.612031 347.701857,137.924473 C347.036828,135.921909 345.930799,133.462023 344.279596,130.531746 C339.520903,122.086822 331.33421,111.603239 318.892566,98.9791424 C310.684722,90.6509613 283.460636,80.1515601 242.854267,68.4955091 C214.725111,60.4210397 183.717539,52.7645778 155.215097,46.3477669 C142.696585,43.5285345 134.045417,32.0793773 134.828767,19.3411542 C119.758171,19.4410671 105.852577,19.2258541 93.0693437,18.7321663 C93.0584454,19.467346 93.0049126,20.3835987 92.8854732,21.427307 C92.6485699,23.4974621 92.2026316,25.5515543 91.4939644,27.4813411 C89.8804882,31.875033 87.121618,35.0660067 82.9813006,36.4463924 C71.838999,40.1601382 60.59179,39.1283183 50.1826208,35.1667242 C48.1432409,34.3905628 46.3061792,33.5584011 44.6995687,32.724931 C44.1941144,32.4627137 43.7434168,32.2166974 43.3500103,31.9917688 C41.5263951,40.7633809 40.4277904,49.3709565 40.3088921,57.4636904 C40.0408513,75.707712 44.8529583,89.2099298 55.8434174,96.4276234 C65.7940683,102.962183 80.6455681,108.105675 100.719754,112.395213 C116.622339,115.793345 133.723895,118.360484 161.22639,121.800602 C163.326159,122.06325 165.501912,122.333468 168.233381,122.67126 C169.325357,122.806301 173.992977,123.382739 175.220735,123.5346 C206.510387,127.404791 221.955935,129.649154 237.133665,132.921157 C256.851827,137.171984 269.998145,142.315348 277.00097,149.168838 C285.619539,157.604189 295.932039,178.007565 307.661559,208.466526 C314.246331,225.565718 321.159501,245.540639 328.291357,267.815362 C336.869544,294.607371 345.321492,323.310289 353.281289,352.012825 C356.067139,362.058427 358.592526,371.386596 360.811661,379.758302 C361.588427,382.68866 362.271452,385.290242 362.855011,387.533167 C363.0593,388.318356 363.236574,389.002674 363.38612,389.582384 C363.475908,389.930445 363.536534,390.166427 363.567285,390.286596 C363.704198,390.821641 363.381449,391.366371 362.846404,391.503285 C362.311359,391.640198 361.766629,391.317449 361.629715,390.782404 C361.599284,390.663482 361.53898,390.428756 361.449519,390.081961 C361.300316,389.503578 361.123388,388.820598 360.91945,388.036757 C360.336647,385.79674 359.654397,383.198109 358.878427,380.270755 C356.661173,371.906144 354.137762,362.585273 351.354026,352.547294 C343.400722,323.868169 334.955892,295.189426 326.386606,268.425219 C319.265627,246.184468 312.364567,226.244535 305.795166,209.18526 C294.171552,179.001312 283.940787,158.759649 275.602055,150.598186 C268.946602,144.08466 256.084602,139.052532 236.712189,134.876242 C221.613158,131.621205 206.204251,129.382167 174.975228,125.519474 C173.747713,125.367644 169.080122,124.791209 167.987918,124.65614 C165.255603,124.318244 163.078989,124.047918 160.978157,123.785138 C133.421749,120.338275 116.276215,117.764535 100.301821,114.351058 C80.0061126,110.014185 64.9475698,104.798988 54.7455669,98.0993663 C43.0716637,90.4328388 38.0320473,76.2922562 38.3091079,57.4343096 C38.5044973,44.135256 41.2901542,29.5356788 45.5842172,15.0844478 C44.7225467,14.9775489 43.870478,14.8686642 43.0267358,14.7580112 C35.3789133,13.7550335 29.0729303,12.6795929 24.0243621,11.6029784 C22.2523896,11.2251026 20.7631368,10.8736678 19.5460544,10.5575831 C19.1176669,10.4463279 18.7533685,10.3472516 18.4518409,10.2614678 C18.2677748,10.2091016 18.1438443,10.1722553 18.078731,10.1520425 C17.5512756,9.98830717 17.2564222,9.4279864 17.4201575,8.90053101 C17.5838928,8.37307561 18.1442136,8.07822222 18.671669,8.24195752 C18.7215569,8.25744398 18.8302667,8.28976493 18.9991183,8.33780273 C19.2857866,8.4193591 19.6352375,8.51439738 20.0487906,8.62179996 C21.2372528,8.93045178 22.6979663,9.27515191 24.4414859,9.64696001 C29.437181,10.7122993 35.690816,11.7788124 43.2867999,12.7749916 C44.2485053,12.9011149 45.2211106,13.0249341 46.2046597,13.1464117 C46.4378113,12.7702276 46.9025909,12.5827642 47.3456872,12.7181389 C47.6692722,12.8170005 47.9062238,13.0651 48.0041371,13.3639242 C66.5093984,15.5669178 88.7991342,16.9545144 115.15348,17.2877063 L115.1549,1.0009 C115.1549,0.44861525 115.602615,0.0009 116.1549,0.0009 L150.0579,0.0009 Z M215.29236,163.334687 L254.353425,167.405694 C261.325916,168.132834 267.210771,172.912225 269.351898,179.586817 L294.406898,257.683817 C294.575611,258.209701 294.286067,258.772784 293.760183,258.941498 C293.234299,259.110211 292.671216,258.820667 292.502502,258.294783 L267.447494,180.197756 C265.548656,174.27846 260.329572,170.039775 254.14604,169.394913 L238.679933,167.7829 L140.230785,367.20697 C139.986305,367.702195 139.386656,367.905464 138.89143,367.660985 C138.396205,367.416505 138.192936,366.816856 138.437415,366.32163 L236.558933,167.5619 L215.08504,165.323913 C214.53573,165.266663 214.136837,164.774949 214.194087,164.22564 C214.251337,163.67633 214.743051,163.277437 215.29236,163.334687 Z M47.5973967,15.3302504 L47.3576831,16.1397468 C46.0018382,20.7406875 44.8018605,25.3544895 43.793408,29.9315607 C43.8795717,29.9848661 44.0207297,30.0696083 44.215911,30.1825837 C44.614216,30.4131319 45.083649,30.6710708 45.6205625,30.9496083 C47.1614688,31.7489927 48.9290604,32.5496855 50.8940149,33.2975216 C60.9070348,37.1083465 71.6995479,38.0984525 82.3488145,34.5490359 C85.8411961,33.3846727 88.1954823,30.6616503 89.6165512,26.7919069 C90.2654123,25.0249793 90.6784157,23.1225928 90.8984419,21.1999161 C90.9794355,20.4921623 91.0293761,19.8208093 91.0540831,19.2001231 C91.0621193,18.998238 91.0670573,18.814457 91.0695535,18.6503483 C74.7485069,17.9786286 60.2883922,16.8457918 47.5973967,15.3302504 Z M149.556549,2.0009 L117.1549,2.0009 L117.1549,16.9789285 C120.276958,17.2149418 125.982807,17.3223843 133.523144,17.3240105 C135.203055,17.3243614 136.931,17.3194605 138.687611,17.3100076 C143.071879,17.2661565 147.551306,17.1960688 152.128441,17.0989386 L152.099521,17.1632727 C152.336443,16.6824702 152.534203,16.1920324 152.694202,15.6922479 C153.796675,12.2484863 153.10149,8.49598505 151.24323,4.81209242 C150.807958,3.94919083 150.341459,3.16069189 149.876056,2.46470297 C149.756409,2.28577641 149.649021,2.13069782 149.556549,2.0009 Z" id="Pants-details" fill="#b8b5ab"/></g></g></g><g id="Head" transform="translate(247.000000, 64.000000) scale(1 1)"><g id="Head/Ponytail" stroke="none" stroke-width="1" fill="none" fill-rule="evenodd"><g id="Ponytail" transform="translate(-84.000000, -9.000000)"><path d="M261.0924,112.1352 C260.2304,112.1892 259.4994,111.5222 259.5164,110.6582 C259.5214,110.4152 259.5244,110.1702 259.5244,109.9252 C259.5244,82.2582 232.1134,59.8292 198.3014,59.8292 C164.4884,59.8292 137.0774,82.2582 137.0774,109.9252 C137.0774,110.1862 137.0804,110.4462 137.0854,110.7052 C137.1034,111.5782 136.3574,112.2542 135.4884,112.1732 C134.9954,112.1272 134.4954,112.1032 133.9874,112.1032 C126.1344,112.1032 119.7674,117.4502 119.7674,124.0472 C119.7674,130.6442 126.1344,135.9912 133.9874,135.9912 C137.1734,135.9912 140.1084,135.1052 142.4774,133.6162 C143.2184,133.1512 144.1764,133.3432 144.6654,134.0692 C152.9104,146.3072 167.2184,155.4172 184.2844,158.6892 C185.7574,158.9712 186.7894,160.3062 186.7034,161.8032 L185.0814,191 L211.5204,191 L209.8994,161.8032 C209.8134,160.3062 210.8454,158.9712 212.3184,158.6892 C229.2864,155.4352 243.5294,146.4112 251.7964,134.2792 C252.2714,133.5822 253.1894,133.3712 253.9144,133.8022 C256.2284,135.1782 259.0464,135.9912 262.0964,135.9912 C269.9494,135.9912 276.3154,130.6442 276.3154,124.0472 C276.3154,117.4502 269.9494,112.1032 262.0964,112.1032 C261.7584,112.1032 261.4234,112.1142 261.0924,112.1352 Z" id="Skin" fill="#f0d5bc"/><path d="M161.0022,6.9933 C170.5362,1.0863 181.9272,-0.6737 192.9792,0.2193 C228.464257,3.08618675 211.027551,53.9682467 210.235588,56.2267893 C226.054936,58.8080897 240.816277,65.1883621 248.9759,75.4282 C261.8299,91.5592 259.5169,110.6582 259.5169,110.6582 C196.8859,108.2552 181.5739,69.1882 181.5739,69.1882 C178.4399,98.7352 137.0859,110.7052 137.0859,110.7052 L137.0854,110.7052 C137.1034,111.5782 136.3574,112.2542 135.4884,112.1732 C134.9954,112.1272 134.4954,112.1032 133.9874,112.1032 C128.054836,112.1032 122.970344,115.154773 120.838328,119.491531 C117.104593,120.759061 112.831961,122.147723 107.9352,123.7533 C91.0422,129.2913 84.3572,145.1153 84.0222,161.7403 C83.8452,170.5333 84.3762,179.7663 80.6902,187.9773 C77.1912,195.7723 71.3012,202.6143 64.8812,208.1563 C50.6712,220.4213 30.3512,227.1463 12.9942,217.2283 C-1.3368,209.0383 -3.6638,197.9233 5.2712,184.4943 C14.2022,171.0713 27.0622,160.3423 29.2482,143.5033 C30.5512,133.4653 27.1782,124.5143 25.1452,114.8453 C21.9102,99.4693 28.4142,86.0423 39.5252,75.3993 C55.3442,60.2473 81.0982,65.5683 100.9702,61.4363 C115.1162,58.4943 128.2072,51.2713 137.1372,39.7713 C145.7452,28.6863 148.2502,14.8943 161.0022,6.9933 Z" id="Hair" fill="#d59058"/><path d="M204.0918,53.8034 C204.3158,54.7854 203.5258,55.7024 202.5198,55.6514 C198.2018,55.4334 187.5968,54.9344 185.0968,55.1734 C181.9368,55.4734 185.4078,46.4204 193.3718,46.1454 C201.1718,45.8764 203.4358,50.9204 204.0918,53.8034" id="Detail" fill="#010101"/></g></g></g><g id="Face" transform="translate(321.000000, 155.000000) scale(1 1)"><g id="Face/Cheerful" stroke="none" stroke-width="1" fill="none" fill-rule="evenodd"><g id="Cheerful" transform="translate(12.000000, 12.000000)"><path d="M3.41426017,9.96066017 C2.82847373,10.5464466 1.87872627,10.5464466 1.29293983,9.96066017 C0.707153391,9.37487373 0.707153391,8.42512627 1.29293983,7.83933983 C2.04348099,7.08879866 3.37261673,6.01031723 5.19203814,4.93833041 C12.2507284,0.779413257 20.1250405,0.627714623 27.7455086,7.13316609 C28.3755738,7.67104097 28.4503088,8.61784345 27.9124339,9.24790862 C27.374559,9.87797379 26.4277566,9.95270878 25.7976914,9.41483391 C19.2619387,3.83538381 12.7612458,3.96061967 6.71493346,7.5230528 C5.79152187,8.06711865 4.96472488,8.65004929 4.24920893,9.23063007 C3.82875379,9.57179392 3.54583917,9.82908117 3.41426017,9.96066017 Z" id="Stroke-1" fill="#010101"/><path d="M46.6653305,9.65928923 C46.2459866,10.3737416 45.3268632,10.6129744 44.6124108,10.1936305 C43.8979584,9.77428663 43.6587256,8.85516316 44.0780695,8.14071077 C44.6198455,7.21766597 45.6258406,5.8996619 47.0952444,4.5829044 C53.0319091,-0.737040705 60.7079796,-0.737040705 69.2843602,7.83933983 C69.8701466,8.42512627 69.8701466,9.37487373 69.2843602,9.96066017 C68.6985737,10.5464466 67.7488263,10.5464466 67.1630398,9.96066017 C59.7394204,2.53704071 53.873565,2.53704071 49.0973408,6.8170956 C48.3907882,7.45024919 47.7749963,8.13118394 47.2568022,8.81009566 C46.9521722,9.2092066 46.7534398,9.50917401 46.6653305,9.65928923 Z" id="Stroke-3" fill="#010101"/><path d="M12.099,19.4361 L50.079,19.4361 C50.9414872,19.4361 51.626313,20.1616928 51.5764957,21.0227401 C51.5391182,21.6687773 51.3957638,22.7410851 51.0763169,24.1016148 C50.5468086,26.3567996 49.6976687,28.6130659 48.4517679,30.7295166 C44.7933145,36.9442465 38.5532386,40.6431881 29.3391579,40.4969105 C21.4748125,40.3718931 16.1958472,36.6605177 13.1668732,30.6424782 C12.1036356,28.5300117 11.3977821,26.2815365 10.9762362,24.0352699 C10.7224275,22.6828146 10.6187022,21.6187392 10.5996674,20.9808398 C10.5744354,20.13526 11.2530438,19.4361 12.099,19.4361 Z" id="Stroke-5" fill="#d15f37"/><path d="M16.8843897,31.7946649 C17.4718294,31.6318118 18.1353215,31.4697044 18.8631547,31.3187494 C22.4375383,30.5774107 26.1484661,30.361851 29.6615816,31.0008452 C33.6851307,31.7326813 37.0671531,33.543451 39.5231789,36.6335892 C40.1258164,37.3918195 39.8625951,38.5139017 38.9856425,38.9250454 C38.511601,39.1472914 37.689624,39.4588241 36.5747009,39.7643191 C30.7404005,41.362949 23.5552242,41 18.2273208,36.9073308 C17.3669842,36.2464567 16.4704105,35.3649364 15.5817063,34.5538203 C14.7358745,33.7818335 15.0321627,32.3850069 16.1185584,32.0228751 C16.2656747,31.9738363 16.5249027,31.8943238 16.8843897,31.7946649 Z" id="Stroke-7" fill="#de7e57"/></g></g></g><g id="Body" transform="translate(64.000000, 26.000000) scale(1 1)"><defs><path d="M315.2343,89.2594 C298.4463,42.9814 250.1653,26.6194 212.8483,21.0144 C211.0723,17.1224 206.2683,6.9884 202.9423,3.6634 C198.7933,-0.4856 151.3883,0.8974 144.9343,3.2014 C138.4803,5.5074 136.2343,22.3544 136.2343,22.3544 C109.5983,27.2454 72.4313,37.7354 57.8263,58.9304 C39.9603,84.8614 16.9863,124.9114 7.1163,142.4104 C0.5203,154.1054 -1.7197,167.8634 1.3643,180.9314 C6.1133,201.0484 24.1283,224.8324 81.1563,230.0164 C183.8093,239.3484 278.6843,227.6844 278.6843,227.6844 C278.6843,227.6844 351.5633,231.5714 351.5633,194.2434 C351.5633,160.0184 315.2343,89.2594 315.2343,89.2594" id="bodylaptop-path-1"/></defs><g id="Body/Laptop" stroke="none" stroke-width="1" fill="none" fill-rule="evenodd"><g id="Body" transform="translate(121.000000, 198.000000)"><g id="Jumper"><mask id="bodylaptop-mask-2" fill="#ffffff"><use xlink:href="#bodylaptop-path-1" fill="#ffffff"/></mask><use fill="#e6b590" xlink:href="#bodylaptop-path-1"/><g mask="url(#bodylaptop-mask-2)"><g transform="translate(-78.000000, 6.000000) scale(1 1)" id="Patterns"><g id="Patterns/Pattern 5" stroke="none" stroke-width="1" fill="none" fill-rule="evenodd"><path d="M217.409367,0.00415373877 C218.193368,-0.0520138171 218.880095,0.468018146 218.943213,1.16567764 C220.522991,18.6271511 221.066625,26.9584181 220.993599,36.9438787 C220.897282,50.1139055 219.405315,61.6622496 216.100929,72.5077376 C213.808823,80.0316099 212.222446,84.4649331 206.137501,100.858669 C202.245413,111.344527 199.838687,118.121655 197.828675,124.565722 C199.019469,127.204959 200.127964,129.907698 201.159563,132.686486 C210.223253,157.100519 213.617697,184.263479 211.288803,211.382108 C212.802176,212.884428 214.406526,214.363482 216.102552,215.821111 C216.668308,216.307343 216.683992,217.109639 216.137584,217.613089 C215.591176,218.116539 214.689589,218.130496 214.123833,217.644264 C213.033818,216.707463 211.980241,215.761671 210.962676,214.806753 L210.868326,215.711114 L210.868326,215.711114 L210.741154,216.852936 C210.660876,217.554932 209.963512,218.065438 209.183549,217.993185 C208.403587,217.920932 207.83638,217.293279 207.916658,216.591283 C208.081535,215.149513 208.230005,213.707101 208.362077,212.26448 C197.341979,201.055634 191.072092,188.614769 188.893799,174.73468 C186.746409,161.051515 188.517998,146.320758 193.674237,128.570792 C194.050716,127.274794 194.432342,125.998371 194.82765,124.715038 C190.260518,114.772235 184.494491,105.725197 177.258043,96.8014536 C170.538129,88.5146834 163.925244,81.6759885 151.360841,69.6964531 C153.216927,74.5999764 155.47429,80.2445116 158.27426,87.0919361 C164.660803,102.710449 167.249539,109.457881 169.878602,118.039712 C173.204791,128.898734 174.936338,135.615077 176.070363,143.435028 C177.610934,154.058422 177.295805,163.696296 174.681304,172.541685 C168.09568,194.822195 147.349686,210.484544 108.745172,217.968741 C107.981189,218.116853 107.216761,217.724422 107.037775,217.09222 C106.858789,216.460019 107.333023,215.82745 108.097006,215.679338 C145.700531,208.389201 165.601045,193.365154 171.921129,171.983021 C174.44579,163.441578 174.751932,154.078586 173.249064,143.715191 C172.133427,136.022033 170.422269,129.384774 167.124179,118.617491 C164.519575,110.115499 161.945088,103.405205 155.582637,87.8456097 C151.765434,78.5105091 148.949617,71.3944261 146.779651,65.3367013 C137.245658,56.1328858 128.903423,45.6277506 121.991642,34.203113 C114.322084,42.8441016 105.453206,50.9574017 95.5388715,58.3781915 C96.2960258,63.0294989 97.3236986,67.4975096 98.6481384,71.844519 C100.92116,79.3057426 102.500878,83.7204591 108.567091,100.063729 C113.414135,113.122378 115.970671,120.463564 118.325763,128.570792 C123.482002,146.320758 125.253591,161.051515 123.106201,174.73468 C120.573145,190.875316 112.507235,205.069763 97.876167,217.644264 C97.3104109,218.130496 96.4088238,218.116539 95.8624157,217.613089 C95.3160077,217.109639 95.3316924,216.307343 95.8974485,215.821111 C110.068921,203.641605 117.839866,189.966238 120.285272,174.384114 C122.3731,161.080474 120.638975,146.661233 115.568105,129.205143 C113.233215,121.167461 110.690807,113.86684 105.862499,100.858669 C99.777554,84.4649331 98.1911774,80.0316099 95.8990706,72.5077376 C94.6888231,68.5355244 93.7216983,64.4690283 92.9772202,60.2631068 C90.0707963,62.3661286 87.0773696,64.411245 84.0018927,66.3937683 C68.8384773,76.1687627 59.0978394,82.6859049 50.9680376,88.7677722 C55.4513047,105.671398 56.8169374,123.848498 55.5483001,143.948754 C54.2486244,164.540783 51.005716,182.776536 43.4376364,217.035098 C43.2965237,217.673876 42.5550711,218.097239 41.7815556,217.980706 C41.0080402,217.864174 40.4953764,217.251875 40.6364891,216.613097 C48.1834452,182.450155 51.4133746,164.287387 52.704782,143.826362 C53.9272805,124.457126 52.6814268,106.918327 48.5355376,90.6122942 C45.8326231,92.6872185 43.2761646,94.7445393 40.7090179,96.899686 C27.0175789,108.393793 16.9103671,120.08615 9.53250193,133.615586 C-4.47167987,159.295692 -9.13068987,188.083352 -4.33691919,216.621012 C-4.22599001,217.281381 -4.76497972,217.893261 -5.54078641,217.987685 C-6.3165931,218.082108 -7.03543456,217.623318 -7.14636375,216.962949 C-12.0166172,187.969982 -7.28117199,158.710035 6.95829276,132.598479 C14.4883573,118.789942 24.7955708,106.866216 38.7161622,95.1797332 C41.6890184,92.6839891 44.6443023,90.3203894 47.8180298,87.9139944 C46.380612,82.7054675 44.6382039,77.6217889 42.5780972,72.6425763 C40.7314403,68.1792141 38.6835997,63.8391359 35.3607136,57.1764476 C34.9715184,56.3960758 34.6862399,55.8257981 33.9431771,54.3417694 C27.4559075,41.385536 24.7784637,35.5181097 22.3769241,28.1507943 C19.1911314,18.3775886 18.1891577,9.59154975 19.6716983,1.00979985 C19.7827472,0.366988488 20.5037883,-0.0797711836 21.2821886,0.0119341969 C22.060589,0.103639577 22.6015842,0.699083048 22.4905353,1.34189441 C21.0676146,9.57853196 22.0340518,18.052961 25.1264244,27.5395775 C27.4852316,34.7758007 30.1344657,40.5814074 36.5744852,53.4432738 L36.8329598,53.9595223 C37.3910981,55.0743669 37.6523909,55.5969556 37.9935361,56.2809827 C41.3369831,62.9848976 43.4024922,67.3624212 45.2725425,71.8823253 C47.1957069,76.5305527 48.8457154,81.266323 50.2341551,86.1052434 C58.1948341,80.2173094 67.7723218,73.8257286 82.2885014,64.4679703 C85.8074666,62.1995643 89.2171298,59.8483187 92.5118662,57.4203384 C91.5377292,50.9856879 91.0595534,44.2117125 91.0064015,36.9438787 C90.9333747,26.9584181 91.4770087,18.6271511 93.0567867,1.16567764 C93.1199054,0.468018146 93.8066318,-0.0520138171 94.5906329,0.00415373877 C95.3746339,0.0603212946 95.9590245,0.671418859 95.8959057,1.36907835 C94.3226539,18.7584175 93.7823293,27.0389669 93.8546464,36.927384 C93.9026288,43.4883572 94.3013309,49.6320296 95.1025496,55.4760815 C104.655279,48.1855986 113.190797,40.2395466 120.565597,31.7954088 C115.035095,22.2784008 110.48823,12.1546487 107.057861,1.63806611 C106.836992,0.960939554 107.267827,0.250868216 108.020159,0.0520773892 C108.772491,-0.146713437 109.561427,0.24105429 109.782296,0.918180849 C113.034677,10.8891005 117.305786,20.5000329 122.476595,29.5626829 C130.139898,20.4483003 136.461581,10.7806593 141.266684,0.752040787 C141.562642,0.134352152 142.390832,-0.162161009 143.116497,0.0897601052 C143.331075,0.164252908 143.512662,0.278358283 143.654353,0.418106461 C144.013008,0.0644028749 144.609683,-0.0939108835 145.175514,0.0570050979 C145.922349,0.256197594 146.332642,0.918672054 146.091928,1.53668322 C140.949515,14.7393523 140.375321,28.5539847 143.625818,44.2023774 C144.978434,50.7140778 146.6243,56.5513246 149.26011,63.9822068 L149.885105,64.5788364 C164.877821,78.7757922 172.133954,86.1477071 179.551557,95.2948443 C186.204148,103.498593 191.642679,111.816272 196.064271,120.81588 C197.898453,115.184216 200.135735,108.9468 203.432909,100.063729 C209.499122,83.7204591 211.07884,79.3057426 213.351862,71.844519 C216.585959,61.2297285 218.050529,49.893446 218.145354,36.927384 C218.217671,27.0389669 217.677346,18.7584175 216.104094,1.36907835 C216.040976,0.671418859 216.625366,0.0603212946 217.409367,0.00415373877 Z M279.717811,11.011332 C280.496212,10.924254 281.217253,11.3484707 281.328302,11.9588466 C282.810842,20.1075725 281.808869,28.4502791 278.623076,37.7303414 C276.221536,44.7259115 273.544092,50.297275 267.056823,62.5997535 C266.31376,64.0089 266.028482,64.5504023 265.639286,65.2913975 C262.3164,71.6178951 260.26856,75.7389785 258.421903,79.9771252 C249.610762,100.198792 246.611279,122.235028 248.295218,147.569068 C249.586625,166.997656 252.816555,184.243955 260.363511,216.683078 C260.504624,217.289624 259.99196,217.871028 259.218444,217.98168 C258.444929,218.092332 257.703476,217.690331 257.562364,217.083786 C249.994284,184.553867 246.751376,167.238266 245.4517,147.685284 C243.750163,122.086494 246.787424,99.7727119 255.727457,79.2552355 C257.597508,74.9633999 259.663017,70.8067606 263.006464,64.4411166 C263.396344,63.6988172 263.681927,63.1567365 264.425515,61.7465949 C270.865534,49.5337217 273.514768,44.0210585 275.873576,37.1499657 C278.965948,28.1420318 279.932385,20.0952115 278.509465,12.2741841 C278.398416,11.6638082 278.939411,11.0984101 279.717811,11.011332 Z M196.577547,128.703258 L196.561838,128.759322 L196.561838,128.759322 L196.431895,129.205143 C191.361025,146.661233 189.6269,161.080474 191.714728,174.384114 C193.691808,186.982063 199.149935,198.333657 208.657208,208.656042 C210.541632,182.713032 207.125296,156.819777 198.466504,133.496379 C197.863853,131.873036 197.234535,130.276275 196.577547,128.703258 Z M141.466653,6.46459073 L141.105558,7.13769965 C136.442042,15.768877 130.67019,24.100328 123.903819,32.0096623 C129.822363,41.9582135 136.837464,51.2099265 144.785143,59.5074347 C143.087801,54.2676668 141.871707,49.6380466 140.825349,44.6007172 C137.959379,30.8034951 138.003707,18.3505618 141.466653,6.46459073 Z" id="Pattern" fill="#010101"/></g></g></g><g mask="url(#bodylaptop-mask-2)"><g transform="translate(202.000000, 6.000000)" id="Patterns"/></g><path d="M181.784959,140.636451 C182.031913,141.130447 181.831646,141.731106 181.337649,141.978059 L170.201649,147.545059 C169.707653,147.792013 169.106994,147.591746 168.860041,147.097749 C168.613087,146.603753 168.813354,146.003094 169.307351,145.756141 L180.443351,140.189141 C180.937347,139.942187 181.538006,140.142454 181.784959,140.636451 Z M99.7242518,101.379471 C100.15389,101.7265 100.220858,102.356113 99.8738294,102.785752 L91.8838294,112.677752 C91.5368003,113.10739 90.9071868,113.174358 90.4775482,112.827329 C90.0479097,112.4803 89.9809416,111.850687 90.3279706,111.421048 L98.3179706,101.529048 C98.6649997,101.09941 99.2946132,101.032442 99.7242518,101.379471 Z M254.499332,101.050241 L258.304332,111.322241 C258.496173,111.840136 258.231854,112.415491 257.713959,112.607332 C257.196064,112.799173 256.620709,112.534854 256.428868,112.016959 L252.623868,101.744959 C252.432027,101.227064 252.696346,100.651709 253.214241,100.459868 C253.732136,100.268027 254.307491,100.532346 254.499332,101.050241 Z M195.845788,1.39987497 L200.080788,20.457875 C200.200593,20.9970089 199.860659,21.5311839 199.321525,21.6509883 C198.782391,21.7707927 198.248216,21.4308589 198.128412,20.891725 L193.893412,1.83372503 C193.773607,1.29459114 194.113541,0.760416123 194.652675,0.640611735 C195.191809,0.520807346 195.725984,0.860741074 195.845788,1.39987497 Z M153.485137,1.21342345 C154.026694,1.32174679 154.3779,1.84857928 154.269577,2.39013676 L150.611577,20.6781368 C150.503253,21.2196942 149.976421,21.5708999 149.434863,21.4625766 C148.893306,21.3542532 148.5421,20.8274207 148.650423,20.2858632 L152.308423,1.99786324 C152.416747,1.45630577 152.943579,1.10510011 153.485137,1.21342345 Z M169.874824,0.231569036 C170.42685,0.248482413 170.860644,0.70969867 170.843731,1.26172438 L170.265731,20.1267244 C170.248818,20.6787501 169.787601,21.1125443 169.235576,21.095631 C168.68355,21.0787176 168.249756,20.6175013 168.266669,20.0654756 L168.844669,1.20047562 C168.861582,0.648449913 169.322799,0.214655659 169.874824,0.231569036 Z M184.509504,1.15909758 L185.857504,19.8320976 C185.89727,20.3829489 185.482954,20.8617386 184.932102,20.9015045 C184.381251,20.9412703 183.902461,20.5269537 183.862696,19.9761024 L182.514696,1.30310242 C182.47493,0.75225115 182.889246,0.273461382 183.440098,0.233695543 C183.990949,0.193929704 184.469739,0.608246308 184.509504,1.15909758 Z" id="Jumper-Details" fill="#d59058"/></g><g id="Laptop" transform="translate(73.401300, 111.997700)"><polygon id="Fill-4" fill="#b8b5ab" points="-7.10542736e-14 -7.10542736e-15 224.968 -7.10542736e-15 203.762 123.087 14.752 123.087"/><path d="M103.877896,32.2903719 C103.993012,32.4081 104.203517,32.6289895 104.495829,32.944619 C104.979952,33.4673608 105.518603,34.0678982 106.098211,34.7378478 C107.753135,36.6507202 109.407824,38.7396041 110.953901,40.9384454 C113.595735,44.6956789 115.643522,48.379943 116.866167,51.8636536 C117.621221,54.0150456 118.046274,56.054027 118.102468,57.964093 C118.10616,58.0895924 118.086564,58.2103704 118.047593,58.3222784 C122.293674,59.0523168 125.305723,63.4175059 124.8652,68.3808 C124.4042,73.5748 120.3352,77.4578 115.7772,77.0528 C111.2192,76.6478 107.8992,72.1088 108.3602,66.9138 C108.777276,62.2257616 112.133161,58.6053438 116.13532,58.243551 C116.116439,58.1741347 116.10559,58.0996583 116.103332,58.022907 C116.053683,56.3352917 115.670022,54.4948688 114.979016,52.5259689 C113.825755,49.2399534 111.862636,45.7080207 109.317849,42.0888073 C107.813249,39.9489564 106.199356,37.9115732 104.585699,36.0463996 L104.491451,35.9376614 L104.491451,35.9376614 C104.474047,39.374038 103.432421,43.8409506 101.563692,49.158228 C100.719089,51.5614574 99.7213865,54.0850176 98.6020397,56.6869463 C97.3240491,59.6576436 95.9555429,62.5760025 94.5869606,65.3193525 C94.1078248,66.2797895 93.6627462,67.1500475 93.2630439,67.914716 C93.1228946,68.1828348 92.9983446,68.4187547 92.8908095,68.6205471 C92.8258888,68.7423723 92.7813413,68.8252312 92.7570159,68.870108 L92.6991694,68.9625185 C96.4981278,70.0788611 99.2891,73.7956667 99.2891,78.209 C99.2891,83.505 95.2701,87.799 90.3131,87.799 C85.3561,87.799 81.3381,83.505 81.3381,78.209 C81.3381,72.913 85.3561,68.62 90.3131,68.62 C90.5138667,68.62 90.7130946,68.6270422 90.9105792,68.6409079 C90.8486699,68.4065934 90.8734982,68.147985 90.9987841,67.916892 C91.08715,67.7538987 91.2548673,67.4391731 91.4905828,66.988227 C91.8846062,66.2344231 92.3239648,65.3753492 92.7972999,64.4265397 C94.150063,61.7148998 95.5029022,58.8299509 96.7648339,55.8965824 C97.867169,53.3341975 98.8484032,50.8522925 99.6768264,48.4950992 C102.067989,41.6912899 103.02962,36.370106 102.196678,33.2472119 C101.931635,32.2535024 103.158879,31.5550349 103.877896,32.2903719 Z" id="Combined-Shape" fill="#ebf3ec"/></g></g></g></g></g></g></g></svg>